<?xml version="1.0"?>
<svg xmlns="http://www.w3.org/2000/svg" xmlns:xlink="http://www.w3.org/1999/xlink" version="1.1" id="Capa_1" x="0px" y="0px" viewBox="0 0 512 512" style="enable-background:new 0 0 512 512;" xml:space="preserve" width="20px" height="20px"><g><g>
	<g>
		<g>
			<path d="M262,416H20c-11.046,0-20,8.954-20,20c0,11.046,8.954,20,20,20h242c11.046,0,20-8.954,20-20     C282,424.954,273.046,416,262,416z" data-original="#000000" class="active-path" fill="#000000"/>
			<path d="M20,96h472c11.046,0,20-8.954,20-20s-8.954-20-20-20H20C8.954,56,0,64.954,0,76S8.954,96,20,96z" data-original="#000000" class="active-path" fill="#000000"/>
			<path d="M492,296H20c-11.046,0-20,8.954-20,20c0,11.046,8.954,20,20,20h472c11.046,0,20-8.954,20-20     C512,304.954,503.046,296,492,296z" data-original="#000000" class="active-path" fill="#000000"/>
			<path d="M492,176H20c-11.046,0-20,8.954-20,20s8.954,20,20,20h472c11.046,0,20-8.954,20-20S503.046,176,492,176z" data-original="#000000" class="active-path" fill="#000000"/>
		</g>
	</g>
</g></g> </svg>
