<?xml version="1.0" encoding="UTF-8"?>
<svg width="30px" height="30px" viewBox="0 0 30 30" version="1.1" xmlns="http://www.w3.org/2000/svg" xmlns:xlink="http://www.w3.org/1999/xlink">
    <!-- Generator: Sketch 49.2 (51160) - http://www.bohemiancoding.com/sketch -->
    <title>crazy white</title>
    <desc>Created with Sketch.</desc>
    <defs></defs>
    <g id="Page-1" stroke="none" stroke-width="1" fill="none" fill-rule="evenodd">
        <g id="07.1.-Danh-Gia-Khach-San" transform="translate(-1076.000000, -552.000000)" fill="#888888" fill-rule="nonzero">
            <path d="M1101.61217,556.389453 C1095.76022,550.537085 1086.23949,550.537085 1080.38868,556.388039 C1074.53673,562.238993 1074.5373,571.760052 1080.38924,577.612138 C1086.23949,583.462809 1095.76022,583.462809 1101.61161,577.611007 C1107.46299,571.760052 1107.46242,562.239559 1101.61217,556.389453 Z M1099.97466,575.974663 C1095.02647,580.923011 1086.97382,580.923577 1082.02534,575.975229 C1077.07574,571.026031 1077.07659,562.973297 1082.02534,558.024948 C1086.97382,553.076882 1095.0259,553.076317 1099.97522,558.025514 C1104.92369,562.973863 1104.92313,571.026597 1099.97466,575.974663 Z M1084.97763,562.596811 C1084.92529,562.54335 1084.90747,562.464998 1084.93124,562.394283 C1084.955,562.323568 1085.01638,562.272088 1085.08992,562.260773 L1086.39224,562.061923 L1086.97636,560.817623 C1087.00917,560.747756 1087.07933,560.703347 1087.15655,560.703347 C1087.23377,560.703347 1087.30392,560.747756 1087.33673,560.817623 L1087.92085,562.061923 L1089.22317,562.260773 C1089.29672,562.272088 1089.3581,562.323568 1089.38186,562.394283 C1089.40562,562.464998 1089.3878,562.542784 1089.33547,562.596528 L1088.3873,563.568717 L1088.6119,564.942567 C1088.62406,565.017807 1088.59266,565.093048 1088.53015,565.137174 C1088.49592,565.161217 1088.45575,565.17338 1088.41559,565.17338 C1088.38249,565.17338 1088.3494,565.16546 1088.31941,565.148771 L1087.15683,564.506397 L1085.99481,565.148771 C1085.92862,565.185826 1085.84659,565.1813 1085.78408,565.137174 C1085.72185,565.093331 1085.69017,565.017807 1085.70233,564.942567 L1085.92608,563.568717 L1084.97763,562.596811 Z M1092.93127,562.596811 C1092.87866,562.54335 1092.86112,562.464998 1092.88488,562.394283 C1092.90864,562.323568 1092.97003,562.272088 1093.04357,562.260773 L1094.34589,562.061923 L1094.92973,560.817623 C1094.96254,560.747756 1095.03269,560.703347 1095.10991,560.703347 C1095.18714,560.703347 1095.25729,560.747756 1095.29038,560.817623 L1095.87422,562.061923 L1097.17654,562.260773 C1097.25008,562.272088 1097.31146,562.323568 1097.33523,562.394283 C1097.35899,562.464998 1097.34117,562.542784 1097.28884,562.596528 L1096.34038,563.569 L1096.56498,564.942849 C1096.57714,565.01809 1096.54574,565.093331 1096.48323,565.137457 C1096.449,565.1615 1096.40884,565.173663 1096.36867,565.173663 C1096.33557,565.173663 1096.30276,565.165743 1096.27249,565.149054 L1095.10991,564.50668 L1093.94818,565.149054 C1093.88199,565.186109 1093.79996,565.181583 1093.73744,565.137457 C1093.67521,565.093614 1093.64353,565.01809 1093.65569,564.942849 L1093.87944,563.569 L1092.93127,562.596811 Z M1098.21777,569.272867 C1098.29301,569.386859 1098.30574,569.531118 1098.25115,569.656424 C1097.03906,572.457585 1094.20106,574.26817 1091.02022,574.26817 C1087.77122,574.26817 1084.91596,572.449099 1083.74659,569.634361 C1083.69426,569.509054 1083.7084,569.365927 1083.78364,569.253066 C1083.85917,569.140771 1083.98561,569.072885 1084.12082,569.072885 C1084.1211,569.072885 1084.1211,569.072885 1084.12139,569.072885 L1097.87946,569.090422 C1098.01609,569.090422 1098.14309,569.158874 1098.21777,569.272867 Z" id="crazy-white"></path>
        </g>
    </g>
</svg>