<?xml version="1.0" encoding="UTF-8" standalone="no"?>
<svg width="14px" height="11px" viewBox="0 0 14 11" version="1.1" xmlns="http://www.w3.org/2000/svg" xmlns:xlink="http://www.w3.org/1999/xlink">
    <!-- Generator: Sketch 49.2 (51160) - http://www.bohemiancoding.com/sketch -->
    <title>check</title>
    <desc>Created with Sketch.</desc>
    <defs></defs>
    <g id="Page-1" stroke="none" stroke-width="1" fill="none" fill-rule="evenodd">
        <g id="15.2.-Email-Khuyen-Mai" transform="translate(-185.000000, -1868.000000)" fill="#E61F26" fill-rule="nonzero">
            <path d="M185.161538,1874.05 C185.053846,1873.94 185,1873.775 185,1873.665 C185,1873.555 185.053846,1873.39 185.161538,1873.28 L185.915385,1872.51 C186.130769,1872.29 186.453846,1872.29 186.669231,1872.51 L186.723077,1872.565 L189.684615,1875.81 C189.792308,1875.92 189.953846,1875.92 190.061538,1875.81 L197.276923,1868.165 L197.330769,1868.165 C197.546154,1867.945 197.869231,1867.945 198.084615,1868.165 L198.838462,1868.935 C199.053846,1869.155 199.053846,1869.485 198.838462,1869.705 L190.223077,1878.835 C190.115385,1878.945 190.007692,1879 189.846154,1879 C189.684615,1879 189.576923,1878.945 189.469231,1878.835 L185.269231,1874.215 L185.161538,1874.05 Z" id="check"></path>
        </g>
    </g>
</svg>