<?xml version="1.0" encoding="UTF-8"?>
<svg width="58px" height="50px" viewBox="0 0 58 50" version="1.1" xmlns="http://www.w3.org/2000/svg" xmlns:xlink="http://www.w3.org/1999/xlink">
    <!-- Generator: Sketch 49.2 (51160) - http://www.bohemiancoding.com/sketch -->
    <title>Shape</title>
    <desc>Created with Sketch.</desc>
    <defs></defs>
    <g id="Page-1" stroke="none" stroke-width="1" fill="none" fill-rule="evenodd">
        <g id="07.-Trang-Chi-Tiet-Khach-San" transform="translate(-963.000000, -712.000000)" fill="#888888" fill-rule="nonzero">
            <g id="Group-10" transform="translate(933.000000, 692.000000)">
                <path d="M78.6472125,40.6499686 L77.6522749,40.6499686 C75.1649308,33.2834114 67.745913,27.9272566 59.0009351,27.9272566 C50.2596975,27.9272566 42.8369393,33.2834114 40.3495953,40.6499686 L39.3509174,40.6499686 C37.2862348,40.6499686 35.5974591,42.309934 35.5974591,44.3553801 L35.5974591,48.6676012 C35.5974591,50.7038253 37.2843646,52.3693238 39.3509174,52.3693238 L40.2448651,52.3693238 C43.822526,66.0216164 58.4473608,69.8579807 58.6119369,69.9059353 L58.9934544,70 L59.3693612,69.9096241 C59.5395479,69.8708916 74.218618,66.1820798 77.7719666,52.3693238 L78.6472125,52.3693238 C80.7156354,52.3693238 82.4044111,50.7093585 82.4044111,48.6676012 L82.4044111,44.3535357 C82.4025409,42.3117784 80.7156354,40.6499686 78.6472125,40.6499686 Z M71.6358946,58.2105574 L61.7893786,58.2105574 C61.3124819,57.3565974 60.3942218,56.777454 59.3338277,56.777454 C57.7890562,56.777454 56.5360333,58.0132059 56.5360333,59.5366852 C56.5360333,61.0638533 57.7890562,62.2959165 59.3338277,62.2959165 C60.5644085,62.2959165 61.6117112,61.5101996 61.9838777,60.4183113 L69.7694515,60.4183113 C65.6213846,64.6770445 60.4652887,66.3794312 59.0028053,66.7981113 C56.4481347,66.0455937 42.5900751,61.257516 42.5900751,46.0669888 C42.5900751,45.8124608 42.5975559,45.5671548 42.6162577,45.31816 C46.859704,44.5324431 51.8231709,43.2173817 53.5044659,41.2069792 C53.5044659,41.2069792 54.1739916,44.9585009 51.7109599,46.504113 C51.7109599,46.504113 60.4447167,45.181674 62.0156708,42.5349515 C62.0156708,42.5349515 62.3223809,49.4016747 75.2565698,48.6436239 C74.8357785,52.5869637 73.4424919,55.7261426 71.6358946,58.2105574 Z M86.1840518,42.9001439 C85.645439,29.782729 74.1400703,20 59.0009351,20 C43.8543192,20 32.3564312,29.7790402 31.8159482,42.9001439 C30.7275014,43.3962891 30,44.3756686 30,45.5284223 L30,47.4871814 C30,49.1508355 31.5129784,50.4548305 33.4430078,50.4548305 L34.9428949,50.4548305 L34.9428949,48.4665609 L34.9428949,44.5471983 L34.9428949,43.2800915 C35.2795279,31.7285772 45.503821,23.0930687 59.0009351,23.0930687 C72.5055299,23.0930687 82.7316932,31.7396437 83.0571051,43.2985355 L83.0571051,44.5490428 L83.0571051,48.4684053 L83.0571051,50.4529861 L84.5569922,50.4529861 C86.4870216,50.4529861 88,49.1526799 88,47.4890258 L88,45.5302667 C88,44.3756686 87.2724986,43.3944446 86.1840518,42.9001439 Z" id="Shape"></path>
            </g>
        </g>
    </g>
</svg>