<?xml version="1.0" encoding="UTF-8"?>
<svg width="30px" height="30px" viewBox="0 0 30 30" version="1.1" xmlns="http://www.w3.org/2000/svg" xmlns:xlink="http://www.w3.org/1999/xlink">
    <!-- Generator: Sketch 49.2 (51160) - http://www.bohemiancoding.com/sketch -->
    <title>happy</title>
    <desc>Created with Sketch.</desc>
    <defs></defs>
    <g id="Page-1" stroke="none" stroke-width="1" fill="none" fill-rule="evenodd">
        <g id="07.1.-Danh-Gia-Khach-San" transform="translate(-881.000000, -552.000000)" fill="#888888" fill-rule="nonzero">
            <path d="M906.612122,556.389453 C900.76025,550.537085 891.239361,550.537085 885.388621,556.388039 C879.536749,562.238993 879.537315,571.760052 885.389187,577.612138 C891.239361,583.462809 900.76025,583.462809 906.611556,577.611007 C912.462862,571.760052 912.462579,562.239559 906.612122,556.389453 Z M904.974627,575.974663 C900.02622,580.923011 891.974239,580.923577 887.02555,575.975229 C882.076011,571.026031 882.076577,562.973297 887.02555,558.024948 C891.973957,553.076882 900.025655,553.076317 904.975193,558.025514 C909.9236,562.973863 909.923034,571.026597 904.974627,575.974663 Z M890.402369,562.938505 C890.402369,561.969993 891.18788,561.184492 892.156403,561.184492 C893.124644,561.184492 893.910154,561.96971 893.910154,562.938505 C893.910154,563.907583 893.124644,564.692801 892.156403,564.692801 C891.18788,564.692801 890.402369,563.907583 890.402369,562.938505 Z M898.355631,562.938505 C898.355631,561.969993 899.141707,561.184492 900.110231,561.184492 C901.078471,561.184492 901.863982,561.96971 901.863982,562.938505 C901.863982,563.907583 901.078754,564.692801 900.110231,564.692801 C899.141707,564.692801 898.355631,563.907583 898.355631,562.938505 Z M902.502404,570.122294 C901.415361,572.636069 898.869593,574.26025 896.017202,574.26025 C893.103429,574.26025 890.542669,572.627866 889.493247,570.101363 C889.313346,569.66887 889.518422,569.172168 889.951485,568.99227 C890.057842,568.948426 890.168159,568.927495 890.276778,568.927495 C890.609425,568.927495 890.9251,569.124082 891.060592,569.450785 C891.846102,571.341986 893.791635,572.563374 896.017202,572.563374 C898.192419,572.563374 900.126637,571.341137 900.944677,569.448805 C901.130801,569.018576 901.630337,568.820291 902.060289,569.006696 C902.490241,569.1931 902.688528,569.692348 902.502404,570.122294 Z" id="happy"></path>
        </g>
    </g>
</svg>