<?xml version="1.0"?>
<svg xmlns="http://www.w3.org/2000/svg" xmlns:xlink="http://www.w3.org/1999/xlink" version="1.1" id="Layer_1" x="0px" y="0px" viewBox="0 0 511.995 511.995" style="enable-background:new 0 0 511.995 511.995;" xml:space="preserve" width="20px" height="20px" class=""><g><g>
	<g>
		<path d="M95.78,255.692c-4.023,0-31.991,36.273-31.991,53.93c0,17.688,14.319,32,31.991,32s32-14.312,32-32    C127.78,291.966,99.804,255.692,95.78,255.692z M95.78,320.294c-5.828,0-10.586-4.703-10.664-10.516    c0.188-1.656,2.133-8.094,9.117-19.156c0.516-0.812,1.039-1.609,1.547-2.391c0.516,0.781,1.031,1.578,1.555,2.391    c6.984,11.062,8.93,17.5,9.109,19.156C106.374,315.591,101.616,320.294,95.78,320.294z" data-original="#000000" class="active-path" data-old_color="#703F3F" fill="#EBA32E"/>
	</g>
</g><g>
	<g>
		<path d="M490.621,309.326L490.621,309.326c0-17.673-14.328-32.001-31.999-32.001c-0.906,0-1.812,0.047-2.719,0.125l54.749-101.664    c0.828-1.523,1.312-3.266,1.312-5.117c0-5.891-4.781-10.664-10.688-10.664c-4.062,0-7.594,2.273-9.391,5.625l-53.577,99.484    c-5.75-5.641-13.641-9.117-22.344-9.117c-14.766,0-27.188,9.992-30.874,23.594c-3.656-1.469-7.625-2.266-11.781-2.266    c-4.172,0-8.156,0.797-11.812,2.266c-3.687-13.602-16.093-23.594-30.858-23.594s-27.172,9.992-30.875,23.594    c-3.641-1.469-7.625-2.266-11.797-2.266c-4.156,0-8.125,0.797-11.781,2.266c-3.688-13.602-16.118-23.594-30.876-23.594    c-14.757,0-27.179,9.992-30.866,23.594c-3.656-1.469-7.633-2.266-11.797-2.266c-3.742,0-7.328,0.641-10.664,1.828    c0-43.992,0-81.125,0-88.21c0-19.156-53.539-114.937-53.539-114.937v-44c0.07,0,0.141,0.008,0.211,0.008    c5.891,0,10.664-4.773,10.664-10.664s-4.773-10.664-10.664-10.664c-0.07,0-0.141,0.008-0.211,0.008v-0.008H53.125v0.008    c-5.797,0.117-10.461,4.836-10.461,10.656s4.664,10.547,10.461,10.656v44c0,0-53.125,95.78-53.125,114.937    c0,3.75,0,15.914,0,33.055V373.31c0,42.607,0,75.748,0,75.748c0,5.297,4.289,9.594,9.578,9.594h172.827    c4.477,0,8.227-3.094,9.273-7.234c17.984,21.422,40.983,38.641,67.249,49.891h144.694    c63.78-27.359,108.374-89.797,108.374-162.436v-29.547H490.621z M458.622,298.653c5.874,0,10.671,4.781,10.671,10.672h-21.327    C447.966,303.435,452.747,298.653,458.622,298.653z M415.966,277.325c5.875,0,10.656,4.797,10.656,10.672    s-4.781,10.656-10.656,10.656s-10.672-4.781-10.672-10.656S410.091,277.325,415.966,277.325z M373.31,298.653    c5.875,0,10.656,4.781,10.656,10.672h-21.344C362.623,303.435,367.42,298.653,373.31,298.653z M330.639,277.325    c5.891,0,10.672,4.797,10.672,10.672s-4.781,10.656-10.672,10.656s-10.672-4.781-10.672-10.656S324.748,277.325,330.639,277.325z     M287.967,298.653c5.891,0,10.672,4.781,10.672,10.672h-21.328C277.31,303.435,282.092,298.653,287.967,298.653z M245.31,277.325    c5.883,0,10.664,4.797,10.664,10.672s-4.781,10.656-10.664,10.656s-10.664-4.781-10.664-10.656S239.428,277.325,245.31,277.325z     M202.647,298.653c5.883,0,10.664,4.781,10.664,10.672h-21.328C191.983,303.435,196.765,298.653,202.647,298.653z M21.336,245.333    h148.897v63.992h-19.695v29.547c0,4.406,0.172,8.781,0.492,13.125H21.336V245.333z M170.655,437.308H21.336V373.31H153.96    c3.336,16.576,9.016,32.311,16.695,46.873V437.308z M170.655,223.997H21.336v-32.468c0.359-2.078,3.273-14.195,25.414-57.89    c12.539-24.742,24.906-47.07,25.023-47.289l2.68-4.828v-5.515v-12c0.07,0,0.141,0.008,0.211,0.008    c5.89,0,10.663-4.773,10.663-10.664s-4.773-10.664-10.663-10.664c-0.07,0-0.141,0.008-0.211,0.008v-10.68h42.663v10.68    c-5.797,0.109-10.461,4.836-10.461,10.656s4.664,10.539,10.461,10.656v12v5.554l2.711,4.852    c0.125,0.219,12.523,22.43,25.156,47.156c22.336,43.71,25.289,55.882,25.672,57.976V223.997z M464.089,425.073    c-16.217,23.86-38.639,42.766-64.998,54.906h-135.64c-26.367-12.141-48.772-31.047-65.007-54.906    c-12.859-18.922-21.234-40.154-24.719-62.42h315.083C485.324,384.919,476.964,406.151,464.089,425.073z M490.668,338.872    c0,0.812-0.016,1.625-0.016,2.453H171.897c-0.016-0.828-0.023-1.641-0.023-2.453v-8.219h318.794V338.872z" data-original="#000000" class="active-path" data-old_color="#703F3F" fill="#EBA32E"/>
	</g>
</g></g> </svg>
