<?xml version="1.0"?>
<svg xmlns="http://www.w3.org/2000/svg" xmlns:xlink="http://www.w3.org/1999/xlink" version="1.1" id="Capa_1" x="0px" y="0px" width="512px" height="512px" viewBox="0 0 84.332 84.332" style="enable-background:new 0 0 84.332 84.332;" xml:space="preserve" class=""><g><g>
	<g>
		<path d="M42.166,0C18.878,0,0,18.878,0,42.166s18.878,42.166,42.166,42.166s42.166-18.878,42.166-42.166S65.454,0,42.166,0z     M8.721,43.255c0.006,1.104-0.884,2.005-1.988,2.013c-0.004,0-0.008,0-0.012,0c-1.099,0-1.993-0.889-2-1.988    c-0.005-0.801,0.082-19.734,17.302-32.613c0.359-0.269,0.779-0.398,1.196-0.398c0.609,0,1.21,0.277,1.603,0.802    c0.662,0.885,0.481,2.139-0.404,2.8C8.797,25.552,8.72,43.079,8.721,43.255z M42.166,65.79c-13.047,0-23.624-10.576-23.624-23.624    s10.577-23.624,23.624-23.624S65.79,29.118,65.79,42.166S55.213,65.79,42.166,65.79z M72.27,64.037    c-0.349,0-0.697-0.12-0.981-0.365c-0.626-0.542-0.695-1.488-0.153-2.115c6.924-8.005,6.969-20.557,6.969-20.683    c-0.002-0.828,0.666-1.502,1.496-1.504c0,0,0.002,0,0.004,0c0.826,0,1.498,0.669,1.5,1.496c0,0.56-0.049,13.809-7.699,22.651    C73.107,63.861,72.689,64.037,72.27,64.037z" data-original="#000000" class="active-path" data-old_color="#5E3737" fill="#EBA32E"/>
		<path d="M46.288,41.189v-0.14c3.728-1.771,4.983-4.518,4.983-7.082c0-3.774-2.934-7.453-8.804-7.453    c-5.311,0-9.363,3.264-9.363,8.061c0,2.609,1.443,5.217,4.798,6.801l0.046,0.14c-3.727,1.582-6.009,4.286-6.009,8.106    c0,4.423,3.82,8.196,10.154,8.196c5.777,0,10.296-3.538,10.296-8.805C52.391,45.336,50.062,42.682,46.288,41.189z M36.972,34.294    c0-2.609,1.863-4.842,5.263-4.842c3.681,0,5.125,2.514,5.125,4.937c0,2.747-2.002,4.609-4.612,5.496    C39.253,38.953,36.972,37.322,36.972,34.294z M42.189,54.837c-3.867,0-6.196-2.7-6.058-5.774c0-2.888,1.912-5.217,5.451-6.239    c4.1,1.163,6.663,2.932,6.663,6.61C48.246,52.555,45.868,54.837,42.189,54.837z" data-original="#000000" class="active-path" data-old_color="#5E3737" fill="#EBA32E"/>
	</g>
</g></g> </svg>
