<?xml version="1.0"?>
<svg xmlns="http://www.w3.org/2000/svg" xmlns:xlink="http://www.w3.org/1999/xlink" version="1.1" id="Capa_1" x="0px" y="0px" viewBox="0 0 512 512" style="enable-background:new 0 0 512 512;" xml:space="preserve" width="512px" height="512px" class=""><g><g>
	<g>
		<g>
			<path d="M470.114,338.239c0.635-4.955,0.89-9.982,0.734-15.039c-0.896-12.618-4.793-24.785-11.628-36.44     c28.955-32.303,27.584-81.987-3.732-112.616c-22.348-21.784-53.744-28.716-81.865-20.827l0.937-0.954l-33.227-32.693V32     c0-17.673-14.327-32-32-32H32C14.327,0,0,14.327,0,32v448c0,17.673,14.327,32,32,32h277.333c17.673,0,32-14.327,32-32V294.154     c15.267,13.238,34.846,20.573,55.168,20.512c16.521,0.049,32.559-4.778,46.186-13.693c3.98,7.697,6.28,15.559,6.87,23.56     c0.045,2.381-0.026,4.754-0.207,7.109c-3.914-0.633-7.925-0.976-12.017-0.976c-41.237,0-74.667,33.429-74.667,74.667v96     c0,5.891,4.776,10.667,10.667,10.667h128c5.891,0,10.667-4.776,10.667-10.667v-96C512,375.858,494.916,350.38,470.114,338.239z      M257.234,123.803l6.862-6.747l14.216,13.985l-6.861,6.748L257.234,123.803z M293.523,146.004l14.227,13.996l-6.861,6.748     l-14.227-13.996L293.523,146.004z M322.96,174.962l7.365,7.245c-2.032,2.591-3.873,5.279-5.547,8.041l-8.679-8.538     L322.96,174.962z M345.565,167.266l-73.981-72.781c-4.148-4.066-10.786-4.066-14.933,0l-11.317,11.131V79.776l16.693-8.213     l91.714,90.211C350.933,163.424,348.207,165.264,345.565,167.266z M32,21.333h277.333C315.224,21.333,320,26.109,320,32v66.679     l-48.427-47.649c-3.234-3.179-8.124-3.967-12.192-1.963l-29.419,14.475c-3.659,1.798-5.973,5.524-5.963,9.6v43.424     c0,0.258,0.021,0.513,0.039,0.768H21.333V32C21.333,26.109,26.109,21.333,32,21.333z M320,480     c0,5.891-4.776,10.667-10.667,10.667H32c-5.891,0-10.667-4.776-10.667-10.667V138.667h220.601l73.859,72.665     c-4.884,18.304-3.284,37.951,4.766,55.335H320V480z M352.48,275.467c-0.351-0.342-0.697-0.689-1.039-1.039     c-23.205-23.779-22.74-61.868,1.039-85.073c11.749-11.524,27.564-17.958,44.021-17.909l0.011-0.053     c16.458-0.031,32.266,6.422,44,17.963c0.351,0.342,0.697,0.689,1.039,1.039c21.174,21.698,22.629,55.304,4.658,78.651     c-2.416-2.714-5.007-5.395-7.772-8.043c2.607-7.381,0.937-15.925-5.018-21.77c-8.255-8.046-21.419-8.046-29.675,0     c-0.096,0.094-0.192,0.19-0.286,0.286c-8.039,8.197-7.911,21.36,0.286,29.399c3.961,3.882,9.292,6.047,14.837,6.027     c1.097,0.003,2.181-0.104,3.252-0.269c3.139,2.895,6.015,5.821,8.628,8.776C406.272,298.951,373.834,296.294,352.48,275.467z      M424.059,248.733l1.872-1.907l-1.838,1.933C424.081,248.751,424.07,248.742,424.059,248.733z M490.667,490.667H384v-85.333     C384,375.878,407.878,352,437.333,352c2.49,0,4.937,0.184,7.336,0.515c-1.355,3.551-2.994,6.992-4.88,10.304     c-0.807-0.093-1.624-0.152-2.457-0.152C425.551,362.667,416,372.218,416,384c0,11.782,9.551,21.333,21.333,21.333     c11.782,0,21.333-9.551,21.333-21.333c0-2.953-0.601-5.765-1.685-8.322c3.112-5.107,5.732-10.484,7.827-16.06     c15.493,9.331,25.859,26.312,25.859,45.716V490.667z" data-original="#000000" class="active-path" data-old_color="#713B3B" fill="#EBA32E"/>
			<path d="M85.333,257.828v-23.161H64v23.161c-12.427,4.394-21.333,16.24-21.333,30.172S51.573,313.778,64,318.172v23.161h21.333     v-23.161c12.427-4.394,21.333-16.24,21.333-30.172S97.761,262.222,85.333,257.828z M74.667,298.667     C68.776,298.667,64,293.891,64,288s4.776-10.667,10.667-10.667c5.891,0,10.667,4.776,10.667,10.667     S80.558,298.667,74.667,298.667z" data-original="#000000" class="active-path" data-old_color="#713B3B" fill="#EBA32E"/>
			<rect x="405.333" y="426.667" width="64" height="21.333" data-original="#000000" class="active-path" data-old_color="#713B3B" fill="#EBA32E"/>
			<rect x="405.333" y="458.667" width="64" height="21.333" data-original="#000000" class="active-path" data-old_color="#713B3B" fill="#EBA32E"/>
			<path d="M277.333,448h-32v21.333H288c5.891,0,10.667-4.776,10.667-10.667V416h-21.333V448z" data-original="#000000" class="active-path" data-old_color="#713B3B" fill="#EBA32E"/>
			<rect x="202.667" y="448" width="21.333" height="21.333" data-original="#000000" class="active-path" data-old_color="#713B3B" fill="#EBA32E"/>
		</g>
	</g>
</g></g> </svg>
