<?xml version="1.0" encoding="UTF-8"?>
<svg width="14px" height="14px" viewBox="0 0 14 14" version="1.1" xmlns="http://www.w3.org/2000/svg" xmlns:xlink="http://www.w3.org/1999/xlink">
    <!-- Generator: Sketch 49.3 (51167) - http://www.bohemiancoding.com/sketch -->
    <title>Combined Shape</title>
    <desc>Created with Sketch.</desc>
    <defs></defs>
    <g id="Page-1" stroke="none" stroke-width="1" fill="none" fill-rule="evenodd">
        <g id="26.-Trang-Gio-Hang" transform="translate(-1148.000000, -86.000000)" fill="#FFFFFF" fill-rule="nonzero">
            <g id="Group-2">
                <g id="Group-8" transform="translate(1134.000000, 64.000000)">
                    <path d="M24.4993464,32.5 C25.465774,32.5 26.249385,33.2835471 26.249385,34.25 C26.249385,35.2164529 25.4658206,36 24.4993464,36 C23.5328721,36 22.7493078,35.2164529 22.7493078,34.25 C22.7493078,33.2835471 23.5328721,32.5 24.4993464,32.5 Z M20.1242498,32.5 C21.0907241,32.5 21.8742885,33.2835471 21.8742885,34.25 C21.8742885,35.2164529 21.0907241,36 20.1242498,36 C19.1578067,36 18.3742267,35.2164529 18.3742267,34.25 C18.3742267,33.2835471 19.1578067,32.5 20.1242498,32.5 Z M27.83624,24.9881557 C27.9994392,25.2167258 28.0438619,25.5098318 27.9550475,25.776409 L26.2050089,31.0268283 C26.0853315,31.3840042 25.7529531,31.6250311 25.3744123,31.6250311 L19.2492305,31.6250311 C18.8723983,31.6250311 18.5382958,31.3840042 18.418634,31.0268283 L15.993556,23.75 L14.8749882,23.75 C14.3913395,23.75 14,23.3590574 14,22.875 C14,22.390927 14.391324,22 14.8749882,22 L16.6241881,22 C17.0010203,22 17.3351229,22.2405299 17.4538993,22.5977057 L18.1298395,24.6249845 L27.1244509,24.6249845 C27.4063956,24.6249845 27.6695925,24.7595545 27.83624,24.9881557 Z" id="Combined-Shape"></path>
                </g>
            </g>
        </g>
    </g>
</svg>