<?xml version="1.0" encoding="UTF-8" standalone="no"?>
<svg width="16px" height="16px" viewBox="0 0 16 16" version="1.1" xmlns="http://www.w3.org/2000/svg" xmlns:xlink="http://www.w3.org/1999/xlink">
    <!-- Generator: Sketch 48.2 (47327) - http://www.bohemiancoding.com/sketch -->
    <title>Combined Shape Copy</title>
    <desc>Created with Sketch.</desc>
    <defs></defs>
    <g id="07.-Trang-Chi-Tiet-Khach-San" stroke="none" stroke-width="1" fill="none" fill-rule="evenodd" transform="translate(-459.000000, -1141.000000)">
        <g id="Group-6" transform="translate(173.000000, 1108.000000)" fill="#EBA32E" fill-rule="nonzero">
            <path d="M297.98286,36.3768071 C297.360808,36.3768071 296.858039,35.8834175 296.857481,35.2697023 L296.857481,34.109852 C296.857481,33.4944885 297.360251,33 297.98286,33 C298.605469,33 299.108796,33.4950379 299.108796,34.109852 L299.108796,35.2691528 C299.108796,35.8834175 298.604912,36.3768071 297.98286,36.3768071 Z M301.982721,34.9197143 L302,48.9967034 L300.857899,49 L287.143773,49 L286,49 L286,34.8916933 L288.286988,34.9197143 L288.286988,35.4839806 C288.286988,36.4158168 289.055078,37.1740325 290.000975,37.1740325 C290.946873,37.1740325 291.71552,36.4152673 291.71552,35.4839806 L291.71552,34.9197143 L296.288939,34.9197143 L296.288939,35.4839806 C296.288939,36.4152673 297.054799,37.1740325 298.002369,37.1740325 C298.948824,37.1740325 299.716356,36.4152673 299.716356,35.4839806 L299.716356,34.9197143 L301.982721,34.9197143 Z M300.856785,47.8764122 L300.857899,47.8764122 L300.857899,38.8635349 L287.143773,38.8635349 L287.143773,47.8764122 L300.856785,47.8764122 Z M289.983139,36.3768071 C289.36053,36.3768071 288.858317,35.8834175 288.858317,35.2697023 L288.858317,34.109852 C288.858317,33.4944885 289.361087,33 289.983139,33 C290.605191,33 291.109632,33.4944885 291.109632,34.109852 L291.109632,35.2691528 C291.109632,35.8834175 290.605191,36.3768071 289.983139,36.3768071 Z M291.718864,40.072834 L293.519805,40.072834 L293.519805,41.6398132 L291.718864,41.6398132 L291.718864,40.072834 Z M294.630692,40.072834 L296.433304,40.072834 L296.433304,41.6398132 L294.630692,41.6398132 L294.630692,40.072834 Z M297.331266,40.072834 L299.132207,40.072834 L299.132207,41.6398132 L297.331266,41.6398132 L297.331266,40.072834 Z M291.718864,42.6749425 L293.519805,42.6749425 L293.519805,44.2408228 L291.718864,44.2408228 L291.718864,42.6749425 Z M294.630692,42.6749425 L296.433304,42.6749425 L296.433304,44.2408228 L294.630692,44.2408228 L294.630692,42.6749425 Z M297.331266,42.6749425 L299.132207,42.6749425 L299.132207,44.2408228 L297.331266,44.2408228 L297.331266,42.6749425 Z M291.718864,45.3286975 L293.519805,45.3286975 L293.519805,46.8945778 L291.718864,46.8945778 L291.718864,45.3286975 Z M288.858317,42.6749425 L290.658143,42.6749425 L290.658143,44.2408228 L288.858317,44.2408228 L288.858317,42.6749425 Z M288.858317,45.3286975 L290.658143,45.3286975 L290.658143,46.8945778 L288.858317,46.8945778 L288.858317,45.3286975 Z M294.630692,45.3286975 L296.433304,45.3286975 L296.433304,46.8945778 L294.630692,46.8945778 L294.630692,45.3286975 Z M297.331266,45.3286975 L299.132207,45.3286975 L299.132207,46.8945778 L297.331266,46.8945778 L297.331266,45.3286975 Z" id="Combined-Shape-Copy"></path>
        </g>
    </g>
</svg>