<?xml version="1.0" encoding="UTF-8" standalone="no"?>
<svg width="20px" height="20px" viewBox="0 0 20 20" version="1.1" xmlns="http://www.w3.org/2000/svg" xmlns:xlink="http://www.w3.org/1999/xlink">
    <!-- Generator: Sketch 49.2 (51160) - http://www.bohemiancoding.com/sketch -->
    <title>fb</title>
    <desc>Created with Sketch.</desc>
    <defs></defs>
    <g id="Page-1" stroke="none" stroke-width="1" fill="none" fill-rule="evenodd">
        <g id="15.-Email-Chao-Mung" transform="translate(-505.000000, -470.000000)" fill="#4267B2" fill-rule="nonzero">
            <g id="Group-4" transform="translate(505.000000, 468.000000)">
                <path d="M10,2 C4.47749963,2 0,6.47749963 0,12 C0,17.5225004 4.47749963,22 10,22 C15.5225004,22 20,17.5225004 20,12 C20,6.47626606 15.5225004,2 10,2 Z M12.5849932,11.9987253 L10.9462327,11.9999589 L10.9449991,17.9999342 L8.69623678,17.9999342 L8.69623678,12 L7.19625323,12 L7.19625323,9.93249067 L8.69623678,9.93125709 L8.69372852,8.71376174 C8.69372852,7.0262751 9.15121959,6.00002467 11.1374776,6.00002467 L12.7924801,6.00002467 L12.7924801,8.06876758 L11.7574713,8.06876758 C10.9837333,8.06876758 10.9462327,8.35750588 10.9462327,8.89624829 L10.9437244,9.93125709 L12.8037057,9.93125709 L12.5849932,11.9987253 Z" id="fb"></path>
            </g>
        </g>
    </g>
</svg>