<?xml version="1.0" encoding="UTF-8"?>
<svg width="16px" height="20px" viewBox="0 0 16 20" version="1.1" xmlns="http://www.w3.org/2000/svg" xmlns:xlink="http://www.w3.org/1999/xlink">
    <!-- Generator: Sketch 49.2 (51160) - http://www.bohemiancoding.com/sketch -->
    <title>cau hoi</title>
    <desc>Created with Sketch.</desc>
    <defs></defs>
    <g id="Page-1" stroke="none" stroke-width="1" fill="none" fill-rule="evenodd">
        <g id="23.-Trang-FAQs" transform="translate(-183.000000, -202.000000)" fill="#CCCCCC" fill-rule="nonzero">
            <path d="M197.974067,210.80117 C197.479751,209.862222 198.183158,209.300268 198.230604,208.815018 C198.449074,206.576449 197.682222,205.206107 196.640076,204.12191 C194.918245,202.326159 192.704305,201.988334 191.25501,202.000302 C187.544881,202.026958 186.043175,203.187859 184.907241,204.436888 C182.544344,207.037762 183.044177,209.32094 183.044177,209.32094 C183.100449,210.674961 184.995512,213.14038 184.995512,213.14038 C186.506044,215.282116 185.764019,216.934251 185.764019,216.934251 C188.814324,217.610446 191.315144,222 191.315144,222 C191.425482,221.349917 192.891328,218.605426 192.891328,218.605426 C193.503706,217.845999 194.533164,218.113104 195.087614,218.180016 C196.680349,218.373137 197.075912,217.911279 197.075912,217.911279 C197.42403,217.701294 197.259074,216.827627 197.259074,216.827627 C197.131633,216.375561 197.339621,216.154696 197.469269,215.977895 C197.81849,215.496997 197.616571,215.273956 197.616571,215.273956 C197.506784,215.137412 197.580711,215.065603 197.580711,215.065603 C197.964688,214.939395 197.992825,214.73213 197.992825,214.73213 L197.982894,214.036895 C197.91945,213.559261 198.138471,213.529885 198.138471,213.529885 C199.01842,213.514109 198.999111,212.952155 198.999111,212.952155 C199.034971,212.643162 197.974067,210.80117 197.974067,210.80117 Z M191.03654,214.834947 C190.308306,214.834947 189.812887,214.306176 189.812887,213.600061 C189.812887,212.882523 190.322098,212.366264 191.03654,212.366264 C191.779669,212.366264 192.261296,212.880891 192.275088,213.600061 C192.27564,214.306176 191.779117,214.834947 191.03654,214.834947 Z M192.700994,209.78987 C192.191783,210.34584 191.986002,210.87461 191.999794,211.484437 L191.999794,211.728694 L190.171486,211.728694 L190.157694,211.376724 C190.116317,210.685297 190.350235,209.980815 190.968681,209.2475 C191.410035,208.732873 191.76698,208.29876 191.76698,207.837446 C191.76698,207.362532 191.450309,207.051363 190.7629,207.023618 C190.309409,207.023618 189.759372,207.187363 189.401324,207.430532 L188.934041,205.953022 C189.428357,205.668509 190.25424,205.397596 191.230183,205.397596 C193.045802,205.397596 193.870582,206.386592 193.870582,207.512676 C193.87003,208.543017 193.223999,209.221387 192.700994,209.78987 Z" id="cau-hoi"></path>
        </g>
    </g>
</svg>