<?xml version="1.0" encoding="UTF-8"?>
<svg width="18px" height="20px" viewBox="0 0 18 20" version="1.1" xmlns="http://www.w3.org/2000/svg" xmlns:xlink="http://www.w3.org/1999/xlink">
    <!-- Generator: Sketch 49.2 (51160) - http://www.bohemiancoding.com/sketch -->
    <title>huong dan</title>
    <desc>Created with Sketch.</desc>
    <defs></defs>
    <g id="Page-1" stroke="none" stroke-width="1" fill="none" fill-rule="evenodd">
        <g id="14.-Huong-Dan-Dat-Phong,-Tour-Du-Lich" transform="translate(-185.000000, -317.000000)" fill="#CCCCCC">
            <path d="M199,326 L189,326 L189,328 L199,328 L199,326 L199,326 Z M201,319 L200,319 L200,317 L198,317 L198,319 L190,319 L190,317 L188,317 L188,319 L187,319 C185.89,319 185.01,319.9 185.01,321 L185,335 C185,336.1 185.89,337 187,337 L201,337 C202.1,337 203,336.1 203,335 L203,321 C203,319.9 202.1,319 201,319 L201,319 Z M201,335 L187,335 L187,324 L201,324 L201,335 L201,335 Z M196,330 L189,330 L189,332 L196,332 L196,330 L196,330 Z" id="huong-dan"></path>
        </g>
    </g>
</svg>