<?xml version="1.0" encoding="UTF-8"?>
<svg width="18px" height="20px" viewBox="0 0 18 20" version="1.1" xmlns="http://www.w3.org/2000/svg" xmlns:xlink="http://www.w3.org/1999/xlink">
    <!-- Generator: Sketch 49.2 (51160) - http://www.bohemiancoding.com/sketch -->
    <title>active huong dan</title>
    <desc>Created with Sketch.</desc>
    <defs></defs>
    <g id="Page-1" stroke="none" stroke-width="1" fill="none" fill-rule="evenodd">
        <g id="14.-Huong-Dan-Dat-Phong,-Tour-Du-Lich" transform="translate(-185.000000, -203.000000)" fill="#E61F26">
            <g id="profile-icon-copy-2" transform="translate(185.000000, 203.000000)">
                <path d="M14,9 L4,9 L4,11 L14,11 L14,9 L14,9 Z M16,2 L15,2 L15,0 L13,0 L13,2 L5,2 L5,0 L3,0 L3,2 L2,2 C0.89,2 0.01,2.9 0.01,4 L0,18 C0,19.1 0.89,20 2,20 L16,20 C17.1,20 18,19.1 18,18 L18,4 C18,2.9 17.1,2 16,2 L16,2 Z M16,18 L2,18 L2,7 L16,7 L16,18 L16,18 Z M11,13 L4,13 L4,15 L11,15 L11,13 L11,13 Z" id="active-huong-dan"></path>
            </g>
        </g>
    </g>
</svg>