<?xml version="1.0" encoding="UTF-8" standalone="no"?>
<svg width="20px" height="20px" viewBox="0 0 20 20" version="1.1" xmlns="http://www.w3.org/2000/svg" xmlns:xlink="http://www.w3.org/1999/xlink">
    <!-- Generator: Sketch 49.2 (51160) - http://www.bohemiancoding.com/sketch -->
    <title>gg</title>
    <desc>Created with Sketch.</desc>
    <defs></defs>
    <g id="Page-1" stroke="none" stroke-width="1" fill="none" fill-rule="evenodd">
        <g id="15.-Email-Chao-Mung" transform="translate(-698.000000, -470.000000)" fill="#C6171E" fill-rule="nonzero">
            <g id="Group-4" transform="translate(505.000000, 468.000000)">
                <path d="M203,2 C208.51438,2 213,6.48602272 213,12 C213,17.5135745 208.513574,22 203,22 C197.486023,22 193,17.5135745 193,12 C193,6.48602272 197.486023,2 203,2 Z M201.660276,13.6571337 C202.128736,13.9773624 202.438492,14.1880287 202.525095,14.525578 C202.545638,14.6113752 202.555305,14.6967695 202.555305,14.7789414 C202.555305,15.648997 201.906388,16.0912753 200.625876,16.0912753 C199.65512,16.0912753 198.894224,15.4963345 198.894224,14.7350358 C198.894224,14.035769 199.782003,13.4231048 200.794651,13.4231048 L200.821236,13.4231048 C201.041569,13.4259244 201.256666,13.4581487 201.459277,13.5201805 C201.528962,13.5673085 201.595424,13.6140337 201.660276,13.6571337 Z M200.942882,11.0034641 L200.933618,11.0034641 C200.290341,10.9833239 199.647466,10.2232337 199.532265,9.34351084 C199.468219,8.85168775 199.571739,8.40940949 199.816241,8.13026666 C199.973737,7.94981068 200.181181,7.85394345 200.413599,7.85394345 L200.439781,7.85474905 C201.096753,7.87368082 201.726335,8.60678321 201.841134,9.48731169 C201.906388,9.97994039 201.796423,10.44397 201.548296,10.7267381 C201.389994,10.9079997 201.185773,11.0034641 200.943688,11.0034641 C200.943688,11.0034641 200.943688,11.0034641 200.942882,11.0034641 Z M201.847176,16.8694917 C203.025779,16.5271087 203.787481,15.6602755 203.787884,14.656892 C203.787884,13.6966084 203.479336,13.1210022 202.649964,12.5345203 C202.293885,12.2827681 201.97124,11.9133972 201.965601,11.8002095 C201.965601,11.5943769 201.983727,11.4948844 202.446951,11.1339724 C203.046725,10.6647064 203.376218,10.0488198 203.376218,9.39748651 C203.376218,8.80737936 203.196165,8.28172078 202.888826,7.91315556 L203.126883,7.91315556 C203.176428,7.91315556 203.224362,7.89784903 203.264239,7.86965278 L203.929268,7.38830259 C204.011037,7.32909047 204.045678,7.22355595 204.014259,7.12768871 C203.982841,7.03141867 203.893015,6.9657617 203.791912,6.9657617 L200.818416,6.9657617 C200.493354,6.9657617 200.162652,7.0229598 199.838395,7.13493918 C198.754854,7.50793523 197.99718,8.43156368 197.99718,9.37936035 C197.99718,10.7219045 199.037622,11.7401917 200.4281,11.7716104 C200.400709,11.8783533 200.387014,11.9830823 200.387014,12.0857971 C200.387014,12.2924354 200.438975,12.4890035 200.546524,12.6787239 C200.53444,12.6787239 200.521953,12.6787239 200.50866,12.6787239 C199.183034,12.6787239 197.986305,13.3296544 197.532345,14.2971884 C197.413921,14.5493434 197.353903,14.8039153 197.353903,15.0548618 C197.353903,15.298558 197.416338,15.5337952 197.539596,15.7545315 C197.825586,16.2652864 198.437847,16.661645 199.266414,16.8707001 C199.694594,16.9790542 200.15379,17.0338355 200.631515,17.0338355 C201.060501,17.0338355 201.469347,16.9786514 201.847176,16.8694917 Z M208.562314,11.7691936 L208.561911,11.7691936 L208.561911,11.2878434 C208.561911,11.1589463 208.456779,11.0542174 208.328285,11.0542174 L206.638927,11.0542174 L206.638927,9.36526223 C206.638927,9.2359623 206.533795,9.13163619 206.406107,9.13163619 L205.924756,9.13163619 C205.795054,9.13163619 205.690325,9.2359623 205.690325,9.36526223 L205.690325,11.0542174 L204.001772,11.0542174 C203.872875,11.0542174 203.768146,11.1597519 203.768146,11.288649 L203.768146,11.7691936 C203.768146,11.8988963 203.872875,12.0028196 204.001772,12.0028196 L205.690325,12.0028196 L205.690325,13.693386 C205.690325,13.8222831 205.795054,13.927012 205.924756,13.927012 L206.406107,13.927012 C206.533795,13.927012 206.638927,13.8222831 206.638927,13.693386 L206.638927,12.0028196 L208.328688,12.0028196 C208.457182,12.0028196 208.562314,11.8980907 208.562314,11.7691936 Z" id="gg"></path>
            </g>
        </g>
    </g>
</svg>