<?xml version="1.0"?>
<svg xmlns="http://www.w3.org/2000/svg" xmlns:xlink="http://www.w3.org/1999/xlink" version="1.1" id="Capa_1" x="0px" y="0px" viewBox="0 0 490.667 490.667" style="enable-background:new 0 0 490.667 490.667;" xml:space="preserve" width="512px" height="512px" class=""><g><g>
	<g>
		<path d="M480,170.667H74.667c-5.891,0-10.667,4.776-10.667,10.667v213.333c0,5.891,4.776,10.667,10.667,10.667H480    c5.891,0,10.667-4.776,10.667-10.667V181.333C490.667,175.442,485.891,170.667,480,170.667z M469.333,384h-384V192h384V384z" data-original="#000000" class="active-path" data-old_color="#472121" fill="#EBA32E"/>
	</g>
</g><g>
	<g>
		<path d="M448,128H42.667C36.776,128,32,132.776,32,138.667V352c0,5.891,4.776,10.667,10.667,10.667h10.667V149.333h384V160h21.333    v-21.333C458.667,132.776,453.891,128,448,128z" data-original="#000000" class="active-path" data-old_color="#472121" fill="#EBA32E"/>
	</g>
</g><g>
	<g>
		<path d="M416,85.333H10.667C4.776,85.333,0,90.109,0,96v213.333C0,315.224,4.776,320,10.667,320h10.667V106.667h384v10.667h21.333    V96C426.667,90.109,421.891,85.333,416,85.333z" data-original="#000000" class="active-path" data-old_color="#472121" fill="#EBA32E"/>
	</g>
</g><g>
	<g>
		<path d="M277.333,213.333c-41.237,0-74.667,33.429-74.667,74.667c0.053,41.215,33.451,74.614,74.667,74.667    C318.571,362.667,352,329.237,352,288C352,246.763,318.571,213.333,277.333,213.333z M277.333,341.333    C247.878,341.333,224,317.455,224,288c0.035-29.441,23.893-53.298,53.333-53.333c29.455,0,53.333,23.878,53.333,53.333    C330.667,317.455,306.789,341.333,277.333,341.333z" data-original="#000000" class="active-path" data-old_color="#472121" fill="#EBA32E"/>
	</g>
</g><g>
	<g>
		<path d="M158.645,234.667h54.688v-21.333h-64c-5.891,0-10.667,4.776-10.667,10.667c0,11.782-9.551,21.333-21.333,21.333    c-5.891,0-10.667,4.776-10.667,10.667v64c0,5.891,4.776,10.667,10.667,10.667c11.782,0,21.333,9.551,21.333,21.333    c0,5.891,4.776,10.667,10.667,10.667h64v-21.333h-54.688c-3.909-15.013-15.633-26.736-30.645-30.645v-45.376    C143.013,261.403,154.736,249.679,158.645,234.667z" data-original="#000000" class="active-path" data-old_color="#472121" fill="#EBA32E"/>
	</g>
</g><g>
	<g>
		<path d="M437.333,245.333C425.551,245.333,416,235.782,416,224c0-5.891-4.776-10.667-10.667-10.667h-64v21.333h54.688    c3.909,15.013,15.633,26.736,30.645,30.645v45.376c-15.013,3.909-26.736,15.633-30.645,30.645h-54.688v21.333h64    c5.891,0,10.667-4.776,10.667-10.667c0-11.782,9.551-21.333,21.333-21.333c5.891,0,10.667-4.776,10.667-10.667v-64    C448,250.109,443.224,245.333,437.333,245.333z" data-original="#000000" class="active-path" data-old_color="#472121" fill="#EBA32E"/>
	</g>
</g><g>
	<g>
		<rect x="426.667" y="213.333" width="21.333" height="21.333" data-original="#000000" class="active-path" data-old_color="#472121" fill="#EBA32E"/>
	</g>
</g><g>
	<g>
		<rect x="426.667" y="341.333" width="21.333" height="21.333" data-original="#000000" class="active-path" data-old_color="#472121" fill="#EBA32E"/>
	</g>
</g><g>
	<g>
		<rect x="106.667" y="341.333" width="21.333" height="21.333" data-original="#000000" class="active-path" data-old_color="#472121" fill="#EBA32E"/>
	</g>
</g><g>
	<g>
		<rect x="106.667" y="213.333" width="21.333" height="21.333" data-original="#000000" class="active-path" data-old_color="#472121" fill="#EBA32E"/>
	</g>
</g></g> </svg>
