<?xml version="1.0" encoding="UTF-8" standalone="no"?>
<svg width="15px" height="14px" viewBox="0 0 15 14" version="1.1" xmlns="http://www.w3.org/2000/svg" xmlns:xlink="http://www.w3.org/1999/xlink">
    <!-- Generator: Sketch 48.2 (47327) - http://www.bohemiancoding.com/sketch -->
    <title>Shape Copy 3</title>
    <desc>Created with Sketch.</desc>
    <defs></defs>
    <g id="01.-Trang-Chu" stroke="none" stroke-width="1" fill="none" fill-rule="evenodd" transform="translate(-971.000000, -1170.000000)">
        <g id="Group-6-Copy-9" transform="translate(933.000000, 875.000000)" fill="#FEBA02" fill-rule="nonzero">
            <g id="Group-8" transform="translate(20.000000, 292.000000)">
                <g id="Group-9">
                    <path d="M32.7573505,9.09537909 L29.7132677,11.9917148 L30.4317469,16.0816062 C30.4832392,16.3760689 30.3585312,16.6740653 30.1111265,16.8499577 C29.9711317,16.9492898 29.8045862,16.9999374 29.6380406,16.9999374 C29.5101143,16.9999374 29.3813834,16.9700985 29.2635142,16.9096355 L25.5001477,14.978745 L21.7367812,16.9096355 C21.4656419,17.0490145 21.1373781,17.0254575 20.8891689,16.8507429 C20.6417643,16.6748505 20.5174586,16.3772468 20.5693532,16.0823914 L21.2882346,11.9925 L18.2433473,9.09577171 C18.023298,8.88729208 17.9452549,8.57516155 18.038987,8.29090684 C18.1339261,8.00665212 18.3853535,7.79974296 18.6886756,7.75655509 L22.8961636,7.15938461 L24.7788526,3.43816058 C24.9136177,3.16961055 25.1936074,3 25.4997455,3 C25.8066881,3 26.0854709,3.16961055 26.2210406,3.43776797 L28.1037296,7.15899199 L32.3120221,7.75616247 C32.6145397,7.79895772 32.8667717,8.0062595 32.9601016,8.29051422 C33.0558452,8.57476894 32.9757907,8.88689946 32.7573505,9.09537909 Z" id="Shape-Copy-3"></path>
                </g>
            </g>
        </g>
    </g>
</svg>