<?xml version="1.0" encoding="UTF-8" standalone="no"?>
<svg width="20px" height="20px" viewBox="0 0 20 20" version="1.1" xmlns="http://www.w3.org/2000/svg" xmlns:xlink="http://www.w3.org/1999/xlink">
    <!-- Generator: Sketch 49.2 (51160) - http://www.bohemiancoding.com/sketch -->
    <title>tw</title>
    <desc>Created with Sketch.</desc>
    <defs></defs>
    <g id="Page-1" stroke="none" stroke-width="1" fill="none" fill-rule="evenodd">
        <g id="15.-Email-Chao-Mung" transform="translate(-610.000000, -470.000000)" fill="#2D94F4" fill-rule="nonzero">
            <g id="Group-4" transform="translate(505.000000, 468.000000)">
                <path d="M115,2 C109.486023,2 105,6.48602272 105,12 C105,17.5135745 109.486023,22 115,22 C120.513574,22 125,17.5135745 125,12 C125,6.48602272 120.51438,2 115,2 Z M119.949346,10.4668494 C119.953625,10.5625441 119.955959,10.6590167 119.955959,10.7554893 C119.955959,13.692848 117.72075,17.0787266 113.631165,17.0787266 C112.375854,17.0787266 111.20729,16.7118971 110.223892,16.0809349 C110.397776,16.101552 110.574772,16.1120551 110.754102,16.1120551 C111.795851,16.1120551 112.753965,15.7565067 113.514854,15.1605548 C112.542347,15.1426606 111.721163,14.5000283 111.438358,13.6166035 C111.573731,13.6422776 111.713383,13.6566707 111.856147,13.6566707 C112.058817,13.6566707 112.255652,13.6302185 112.441984,13.5792592 C111.425132,13.3754218 110.659186,12.4772148 110.659186,11.3996776 C110.659186,11.3903416 110.659186,11.3806165 110.659575,11.3716695 C110.959107,11.5377736 111.301818,11.6381362 111.665924,11.6494173 C111.069972,11.2514677 110.677469,10.5707131 110.677469,9.79970997 C110.677469,9.39203524 110.786778,9.01003469 110.978168,8.6817165 C112.073988,10.0268875 113.712467,10.9114794 115.559451,11.00484 C115.521329,10.8418479 115.502268,10.6726318 115.502268,10.4979696 C115.502268,9.27066643 116.497337,8.27520879 117.72464,8.27520879 C118.36416,8.27520879 118.941051,8.54517659 119.34717,8.97696947 C119.85404,8.87738481 120.328623,8.69299758 120.759249,8.43742287 C120.591978,8.95674134 120.240709,9.39203524 119.780518,9.66744908 C120.230594,9.61376672 120.660053,9.49473193 121.057225,9.31773575 C120.760805,9.76275472 120.383861,10.1544803 119.949346,10.4668494 Z" id="tw"></path>
            </g>
        </g>
    </g>
</svg>