<?xml version="1.0"?>
<svg xmlns="http://www.w3.org/2000/svg" xmlns:xlink="http://www.w3.org/1999/xlink" version="1.1" id="Capa_1" x="0px" y="0px" viewBox="0 0 512 512" style="enable-background:new 0 0 512 512;" xml:space="preserve" width="512px" height="512px" class=""><g><g>
	<g>
		<path d="M452.267,119.467H59.733c-4.71,0-8.533,3.814-8.533,8.533v324.267c0,4.719,3.823,8.533,8.533,8.533h392.533    c4.71,0,8.533-3.814,8.533-8.533V128C460.8,123.281,456.977,119.467,452.267,119.467z M443.733,443.733H68.267v-307.2h375.467    V443.733z" data-original="#000000" class="active-path" data-old_color="#833838" fill="#EBA32E"/>
	</g>
</g><g>
	<g>
		<path d="M435.2,0H76.8C62.686,0,51.2,11.486,51.2,25.6V128c0,4.719,3.823,8.533,8.533,8.533h392.533    c4.71,0,8.533-3.814,8.533-8.533V25.6C460.8,11.486,449.314,0,435.2,0z M443.733,119.467H68.267V25.6    c0-4.71,3.823-8.533,8.533-8.533h358.4c4.71,0,8.533,3.823,8.533,8.533V119.467z" data-original="#000000" class="active-path" data-old_color="#833838" fill="#EBA32E"/>
	</g>
</g><g>
	<g>
		<path d="M213.333,42.667h-25.6c-4.71,0-8.533,3.814-8.533,8.533s3.823,8.533,8.533,8.533h25.6c4.71,0,8.533-3.814,8.533-8.533    S218.044,42.667,213.333,42.667z" data-original="#000000" class="active-path" data-old_color="#833838" fill="#EBA32E"/>
	</g>
</g><g>
	<g>
		<path d="M213.333,76.8h-25.6c-4.71,0-8.533,3.814-8.533,8.533s3.823,8.533,8.533,8.533h25.6c4.71,0,8.533-3.814,8.533-8.533    S218.044,76.8,213.333,76.8z" data-original="#000000" class="active-path" data-old_color="#833838" fill="#EBA32E"/>
	</g>
</g><g>
	<g>
		<path d="M452.267,443.733H59.733c-4.71,0-8.533,3.814-8.533,8.533V486.4c0,14.114,11.486,25.6,25.6,25.6h358.4    c14.114,0,25.6-11.486,25.6-25.6v-34.133C460.8,447.548,456.977,443.733,452.267,443.733z M443.733,486.4    c0,4.71-3.823,8.533-8.533,8.533H76.8c-4.71,0-8.533-3.823-8.533-8.533v-25.6h375.467V486.4z" data-original="#000000" class="active-path" data-old_color="#833838" fill="#EBA32E"/>
	</g>
</g><g>
	<g>
		<path d="M256,153.6c-75.29,0-136.533,61.252-136.533,136.533S180.71,426.667,256,426.667s136.533-61.252,136.533-136.533    S331.29,153.6,256,153.6z M256,409.6c-65.877,0-119.467-53.589-119.467-119.467S190.123,170.667,256,170.667    s119.467,53.589,119.467,119.467S321.877,409.6,256,409.6z" data-original="#000000" class="active-path" data-old_color="#833838" fill="#EBA32E"/>
	</g>
</g><g>
	<g>
		<path d="M256,187.733c-56.465,0-102.4,45.935-102.4,102.4s45.935,102.4,102.4,102.4s102.4-45.935,102.4-102.4    S312.465,187.733,256,187.733z M256,375.467c-47.053,0-85.333-38.281-85.333-85.333S208.947,204.8,256,204.8    s85.333,38.281,85.333,85.333S303.053,375.467,256,375.467z" data-original="#000000" class="active-path" data-old_color="#833838" fill="#EBA32E"/>
	</g>
</g><g>
	<g>
		<path d="M256,221.867c-37.641,0-68.267,30.626-68.267,68.267c0,4.719,3.823,8.533,8.533,8.533s8.533-3.814,8.533-8.533    c0-28.237,22.972-51.2,51.2-51.2c4.71,0,8.533-3.814,8.533-8.533S260.71,221.867,256,221.867z" data-original="#000000" class="active-path" data-old_color="#833838" fill="#EBA32E"/>
	</g>
</g><g>
	<g>
		<path d="M347.75,244.915c-1.758-3.558-5.743-5.419-9.6-4.523c-23.245,5.461-39.484,25.916-39.484,49.741    s16.239,44.279,39.484,49.741c0.649,0.145,1.306,0.222,1.954,0.222c3.183,0,6.178-1.783,7.646-4.745    c7.066-14.285,10.65-29.5,10.65-45.218S354.816,259.2,347.75,244.915z M335.462,320.998    c-11.887-5.478-19.729-17.365-19.729-30.865s7.842-25.387,19.729-30.865c3.9,9.899,5.871,20.25,5.871,30.865    S339.362,311.1,335.462,320.998z" data-original="#000000" class="active-path" data-old_color="#833838" fill="#EBA32E"/>
	</g>
</g><g>
	<g>
		<path d="M349.867,42.667H332.8c-4.71,0-8.533,3.814-8.533,8.533s3.823,8.533,8.533,8.533h17.067c4.71,0,8.533-3.814,8.533-8.533    S354.577,42.667,349.867,42.667z" data-original="#000000" class="active-path" data-old_color="#833838" fill="#EBA32E"/>
	</g>
</g><g>
	<g>
		<path d="M349.867,76.8H332.8c-4.71,0-8.533,3.814-8.533,8.533s3.823,8.533,8.533,8.533h17.067c4.71,0,8.533-3.814,8.533-8.533    S354.577,76.8,349.867,76.8z" data-original="#000000" class="active-path" data-old_color="#833838" fill="#EBA32E"/>
	</g>
</g><g>
	<g>
		<path d="M409.6,76.8h-17.067c-4.71,0-8.533,3.814-8.533,8.533s3.823,8.533,8.533,8.533H409.6c4.71,0,8.533-3.814,8.533-8.533    S414.31,76.8,409.6,76.8z" data-original="#000000" class="active-path" data-old_color="#833838" fill="#EBA32E"/>
	</g>
</g><g>
	<g>
		<path d="M409.6,42.667h-17.067c-4.71,0-8.533,3.814-8.533,8.533s3.823,8.533,8.533,8.533H409.6c4.71,0,8.533-3.814,8.533-8.533    S414.31,42.667,409.6,42.667z" data-original="#000000" class="active-path" data-old_color="#833838" fill="#EBA32E"/>
	</g>
</g><g>
	<g>
		<path d="M128,34.133c-18.825,0-34.133,15.309-34.133,34.133S109.176,102.4,128,102.4s34.133-15.309,34.133-34.133    S146.825,34.133,128,34.133z M128,85.333c-9.412,0-17.067-7.654-17.067-17.067c0-9.412,7.654-17.067,17.067-17.067    c9.412,0,17.067,7.654,17.067,17.067C145.067,77.679,137.412,85.333,128,85.333z" data-original="#000000" class="active-path" data-old_color="#833838" fill="#EBA32E"/>
	</g>
</g><g>
	<g>
		<path d="M273.067,34.133c-18.825,0-34.133,15.309-34.133,34.133s15.309,34.133,34.133,34.133S307.2,87.091,307.2,68.267    S291.891,34.133,273.067,34.133z M273.067,85.333c-9.412,0-17.067-7.654-17.067-17.067c0-9.412,7.654-17.067,17.067-17.067    s17.067,7.654,17.067,17.067C290.133,77.679,282.479,85.333,273.067,85.333z" data-original="#000000" class="active-path" data-old_color="#833838" fill="#EBA32E"/>
	</g>
</g></g> </svg>
