<?xml version="1.0" encoding="UTF-8"?>
<svg width="30px" height="30px" viewBox="0 0 30 30" version="1.1" xmlns="http://www.w3.org/2000/svg" xmlns:xlink="http://www.w3.org/1999/xlink">
    <!-- Generator: Sketch 49.2 (51160) - http://www.bohemiancoding.com/sketch -->
    <title>normal</title>
    <desc>Created with Sketch.</desc>
    <defs></defs>
    <g id="Page-1" stroke="none" stroke-width="1" fill="none" fill-rule="evenodd">
        <g id="07.1.-Danh-Gia-Khach-San" transform="translate(-686.000000, -552.000000)" fill="#888888" fill-rule="nonzero">
            <path d="M690.388605,556.387756 C684.536754,562.238993 684.53732,571.760052 690.389171,577.612138 C696.239325,583.462809 705.76018,583.462809 711.611465,577.611007 C717.463033,571.760052 717.462468,562.239842 711.612031,556.389736 C705.76018,550.537085 696.239042,550.537085 690.388605,556.387756 Z M709.974542,575.974663 C705.026153,580.923011 696.973918,580.923577 692.025528,575.975229 C687.076007,571.026031 687.076573,562.973297 692.025528,558.024948 C696.973635,553.0766 705.025587,553.076034 709.975108,558.025231 C714.923498,562.97358 714.922932,571.026597 709.974542,575.974663 Z M707.395406,572.091281 C707.395406,572.634655 706.954707,573.07535 706.411329,573.07535 L695.589591,573.07535 C695.046213,573.07535 694.605513,572.634655 694.605513,572.091281 C694.605513,571.547908 695.046213,571.107495 695.589591,571.107495 L706.411611,571.107495 C706.954707,571.107778 707.395406,571.547908 707.395406,572.091281 Z M695.402369,562.938505 C695.402369,561.969993 696.18788,561.184492 697.156403,561.184492 C698.124644,561.184492 698.910154,561.96971 698.910154,562.938505 C698.910154,563.907583 698.124644,564.692801 697.156403,564.692801 C696.18788,564.692801 695.402369,563.907583 695.402369,562.938505 Z M703.355631,562.938505 C703.355631,561.969993 704.141707,561.184492 705.110231,561.184492 C706.078471,561.184492 706.863982,561.96971 706.863982,562.938505 C706.863982,563.907583 706.078754,564.692801 705.110231,564.692801 C704.141707,564.692801 703.355631,563.907583 703.355631,562.938505 Z" id="normal"></path>
        </g>
    </g>
</svg>