<?xml version="1.0" encoding="UTF-8"?>
<svg width="16px" height="16px" viewBox="0 0 16 16" version="1.1" xmlns="http://www.w3.org/2000/svg" xmlns:xlink="http://www.w3.org/1999/xlink">
    <!-- Generator: Sketch 49.2 (51160) - http://www.bohemiancoding.com/sketch -->
    <title>Question</title>
    <desc>Created with Sketch.</desc>
    <defs></defs>
    <g id="Page-1" stroke="none" stroke-width="1" fill="none" fill-rule="evenodd">
        <g id="08.-Trang-Thue-Xe-Du-Lich" transform="translate(-771.000000, -1052.000000)" fill="#E52225" fill-rule="nonzero">
            <g id="Group-15-Copy-4" transform="translate(771.000000, 1051.000000)">
                <path d="M8,1 C12.4219687,1 16,4.5785 16,9 C16,13.4219687 12.4215,17 8,17 C3.57803125,17 0,13.4215 0,9 C0,4.57803125 3.5785,1 8,1 Z M8,15.7692308 C11.7325397,15.7692308 14.7692308,12.7325397 14.7692308,9 C14.7692308,5.2674603 11.7325397,2.23076923 8,2.23076923 C4.2674603,2.23076923 1.23076923,5.26742979 1.23076923,9 C1.23076923,12.7325702 4.2674603,15.7692308 8,15.7692308 Z M7.68783654,12.3052885 C8.270625,12.3052885 8.75629808,12.7909135 8.75629808,13.37375 C8.75629808,13.9426442 8.28451923,14.4422115 7.68783654,14.4422115 C7.09115385,14.4422115 6.63326923,13.9426442 6.63326923,13.37375 C6.63326923,12.7909135 7.10504808,12.3052885 7.68783654,12.3052885 Z M7.86822115,4.21533654 C9.64442308,4.21533654 10.8238942,5.200625 10.8238942,6.505 C10.8238942,7.809375 9.64442308,8.75298077 9.26971154,9.044375 C8.50653846,9.64105769 8.49269231,10.0574038 8.49269231,10.7788942 C8.49269231,11.0425481 8.35394231,11.3478365 7.67394231,11.3478365 C7.10504808,11.3478365 6.91076923,11.1396154 6.91076923,10.418125 C6.91076923,9.22471154 7.43807692,8.65576923 7.84052885,8.30884615 C8.29846154,7.92038462 9.07552885,7.49014423 9.07552885,6.74086538 C9.07552885,6.1025 8.52048077,5.79725962 7.82663462,5.79725962 C6.41125,5.79725962 6.71649038,6.86572115 5.96716346,6.86572115 C5.59254808,6.86572115 5.13456731,6.61596154 5.13456731,6.07475962 C5.13456731,5.32548077 5.99495192,4.21533654 7.86822115,4.21533654 Z" id="Question"></path>
            </g>
        </g>
    </g>
</svg>