<?xml version="1.0" encoding="UTF-8"?>
<svg width="30px" height="30px" viewBox="0 0 30 30" version="1.1" xmlns="http://www.w3.org/2000/svg" xmlns:xlink="http://www.w3.org/1999/xlink">
    <!-- Generator: Sketch 49.2 (51160) - http://www.bohemiancoding.com/sketch -->
    <title>sad</title>
    <desc>Created with Sketch.</desc>
    <defs></defs>
    <g id="Page-1" stroke="none" stroke-width="1" fill="none" fill-rule="evenodd">
        <g id="07.1.-Danh-Gia-Khach-San" transform="translate(-491.000000, -552.000000)" fill="#888888" fill-rule="nonzero">
            <path d="M516.612122,556.389453 C510.76025,550.537085 501.239361,550.537085 495.388621,556.388039 C489.536749,562.238993 489.537315,571.760052 495.389187,577.612138 C501.239361,583.462809 510.76025,583.462809 516.611556,577.611007 C522.462862,571.760052 522.462579,562.239559 516.612122,556.389453 Z M514.974627,575.974663 C510.02622,580.923011 501.974239,580.923577 497.02555,575.975229 C492.076011,571.026031 492.076577,562.973297 497.02555,558.024948 C501.973957,553.076882 510.025655,553.076317 514.975193,558.025514 C519.9236,562.973863 519.923034,571.026597 514.974627,575.974663 Z M512.785267,572.93194 C512.971391,573.36217 512.773387,573.861418 512.343435,574.047256 C511.9132,574.233944 511.413947,574.035376 511.227823,573.605429 C510.4095,571.713381 508.475565,570.490578 506.300065,570.490578 C504.074498,570.490578 502.128683,571.712249 501.343738,573.603167 C501.208246,573.929587 500.892288,574.12674 500.559924,574.12674 C500.451305,574.12674 500.341271,574.105808 500.234631,574.061682 C499.801851,573.881783 499.596775,573.385082 499.776393,572.952589 C500.825815,570.426086 503.386858,568.793702 506.300065,568.793702 C509.152456,568.793702 511.698224,570.417883 512.785267,572.93194 Z M500.402369,562.938505 C500.402369,561.969993 501.18788,561.184492 502.156403,561.184492 C503.124644,561.184492 503.910154,561.96971 503.910154,562.938505 C503.910154,563.907583 503.124644,564.692801 502.156403,564.692801 C501.18788,564.692801 500.402369,563.907583 500.402369,562.938505 Z M508.355631,562.938505 C508.355631,561.969993 509.141707,561.184492 510.110231,561.184492 C511.078471,561.184492 511.863982,561.96971 511.863982,562.938505 C511.863982,563.907583 511.078754,564.692801 510.110231,564.692801 C509.141707,564.692801 508.355631,563.907583 508.355631,562.938505 Z" id="sad"></path>
        </g>
    </g>
</svg>